<svg width="206" height="292" viewBox="0 0 206 292" fill="none" xmlns="http://www.w3.org/2000/svg">
<path d="M250.849 -47.9992C267.98 -22.1862 281.276 6.39135 294.497 34.374C300.25 46.5391 305.584 58.9836 309.758 71.8009C313.623 83.7353 316.914 96.4976 316.365 109.124C316.114 115.139 315.262 124.177 308.704 126.786C303.799 128.733 297.763 126.758 292.965 125.368C284.494 122.884 270.551 116.676 264.682 126.89C261.502 132.443 262.181 139.248 263.399 145.29C265.065 153.452 267.874 161.333 270.033 169.327C272.117 177.088 274.305 185.91 272.141 193.889C269.932 201.979 261.983 207.453 253.683 207.516C244.127 207.571 235.446 201.033 228.076 195.675C221.135 190.595 214.089 184.577 205.757 182C197.239 179.385 189.79 183.073 183.571 188.843C175.346 196.437 169.337 206.139 162.602 214.996C155.829 223.918 148.655 231.334 138.428 236.234C130.552 240.006 117.387 244.61 110.479 236.686C103.002 228.092 106.671 213.26 109.473 203.523C113.062 191.043 118.268 179.054 123.093 167.038C125.01 162.248 126.881 157.449 128.501 152.576C128.935 151.237 127.53 150.039 126.313 150.086C117.687 150.447 108.855 149.172 100.496 147.096C92.3226 145.058 82.177 141.878 76.8315 134.845C70.5453 126.585 77.4001 116.761 84.159 111.316C92.9697 104.177 103.811 99.8352 113.805 94.6479C123.957 89.3954 135.399 82.8773 139.649 71.5681C140.056 70.4893 139.776 69.3459 138.659 68.7612C127.283 62.6535 114.691 58.1646 104.51 50.0476C100.648 46.9829 96.1243 42.6264 96.4883 37.2615C97.0071 29.6559 105.987 24.0976 111.867 20.8941C121.972 15.3906 133.224 12.7497 144.244 9.82072C152.002 7.74065 164.075 6.68881 166.524 -2.85237C167.079 -5.03771 166.231 -6.12473 164.928 -7.71344C162.683 -10.5286 163.617 -14.2576 163.677 -17.7256C163.684 -19.585 163.28 -22.5412 164.337 -24.2157C165.487 -26.1133 168.888 -26.8136 170.829 -27.4661C182.972 -31.6697 195.582 -34.2096 207.995 -37.586C214.87 -39.4794 221.97 -40.6756 228.911 -42.411C236.307 -44.249 243.666 -46.2636 251.025 -48.2783C253.608 -48.9964 252.291 -52.9559 249.69 -52.2657C236.477 -48.6375 223.218 -45.2603 209.828 -42.32C203.463 -40.9291 197.183 -38.9898 190.864 -37.4688C184.546 -35.9479 178.218 -34.3804 172.049 -32.2738C167.543 -30.7545 161.15 -29.4658 159.866 -24.0909C159.229 -21.3662 159.521 -18.3355 159.451 -15.5463C159.4 -12.1248 158.764 -8.67498 160.971 -5.79475C161.371 -5.25586 162.469 -4.57812 162.489 -3.94592C162.613 -1.40786 158.007 1.71075 156.159 2.38178C150.863 4.34812 144.934 5.36672 139.452 6.81259C127.727 9.89092 115.862 13.1832 105.535 19.8026C99.9724 23.359 93.7153 28.7104 92.4518 35.5636C91.4927 40.7617 93.9535 45.529 97.3888 49.2821C107.695 60.5415 123.634 65.576 136.769 72.5654C136.423 71.6267 136.125 70.6972 135.779 69.7585C131.409 81.4304 118.674 87.522 108.234 92.7655C97.5713 98.1579 85.6156 103.003 77.2815 111.88C71.4254 118.133 67.4419 127.368 72.1011 135.425C76.6299 143.287 86.3118 147.22 94.5509 149.779C104.696 152.959 115.797 154.735 126.449 154.27C125.723 153.424 125.015 152.607 124.261 151.78C120.272 163.842 114.889 175.385 110.426 187.28C106.342 198.236 102 210.01 101.971 221.845C101.957 231.533 105.328 242.064 115.751 244.575C125.412 246.909 136.049 242.502 144.324 237.818C154.28 232.213 161.202 223.755 167.909 214.675C174.551 205.679 180.94 195.037 190.309 188.614C198.926 182.694 207.26 186.359 215.15 191.651C223.356 197.176 230.886 203.919 239.862 208.244C248.131 212.235 257.121 213.082 265.331 208.482C272.287 204.599 276.172 197.809 276.811 189.961C278.217 172.527 268.249 156.768 266.523 139.774C266.014 134.912 266.431 127.455 272.145 125.814C277.19 124.378 283.356 126.91 288.117 128.366C298.505 131.546 312.388 135.494 317.807 122.678C321.772 113.294 320.695 101.794 318.98 92.0517C316.628 78.5819 312.184 65.5417 307.026 52.939C302.026 40.6338 296.236 28.6546 290.233 16.7779C282.663 1.71361 275.558 -13.6208 267.394 -28.3684C263.247 -35.8399 258.849 -43.1437 254.099 -50.252C252.822 -52.5845 249.339 -50.2571 250.849 -47.9992Z" fill="#DBDBDB"/>
<path d="M248.649 -52.376C240.429 -15.5887 222.688 18.4084 206.498 52.1345C198.019 69.7789 189.8 87.5718 181.032 105.086C171.783 123.568 162.356 141.966 153.414 160.606C148.521 170.772 143.777 181.041 139.302 191.411C137.069 196.573 134.902 201.772 132.827 206.99C130.67 212.384 129.228 217.945 127.116 223.348C126.162 225.841 129.902 227.697 130.883 225.186C132.587 220.74 133.724 216.109 135.446 211.692C137.308 206.939 139.234 202.224 141.235 197.499C145.237 188.049 149.462 178.693 153.836 169.438C162.759 150.529 172.26 131.879 181.621 113.202C190.74 95.0088 199.414 76.6298 208.18 58.2693C216.372 41.0993 224.834 24.0314 232.524 6.59223C240.769 -12.1862 248.242 -31.4567 252.712 -51.5428C253.359 -54.1931 249.24 -54.9891 248.649 -52.376Z" fill="#DBDBDB"/>
<path d="M171.346 187.859C170.368 180.124 169.595 172.334 169.016 164.534C168.353 155.702 167.745 146.712 168.457 137.888C168.621 135.843 166.351 134.497 164.82 136.125C154.667 146.863 142.912 155.929 132.945 166.825C131.126 168.807 134.3 171.565 136.119 169.583C146.086 158.687 157.841 149.622 167.994 138.884C166.784 138.28 165.547 137.696 164.357 137.12C163.608 146.13 164.123 155.222 164.805 164.203C165.393 172.198 166.176 180.184 167.182 188.142C167.502 190.791 171.684 190.536 171.346 187.859Z" fill="#DBDBDB"/>
<path d="M222.408 171.275C204.32 145.779 198.903 115.484 194.128 85.2439C193.95 84.0726 192.712 82.7627 191.383 83.3682C171.208 92.8598 150.623 101.375 130.382 110.709C127.939 111.818 129.246 115.824 131.717 114.696C151.958 105.363 172.543 96.8472 192.718 87.3556C191.806 86.7149 190.885 86.1207 189.973 85.4799C194.88 116.398 200.427 147.493 218.953 173.584C220.471 175.795 223.972 173.496 222.408 171.275Z" fill="#DBDBDB"/>
<path d="M250.521 110.827C234.026 87.8959 226.689 59.6106 219.669 32.6453C219.332 31.2975 217.584 30.8527 216.526 31.5602C198.167 43.5884 176.051 48.1262 157.702 60.1078C155.454 61.5694 157.755 65.0725 160.03 63.5922C178.361 51.5827 200.496 47.0728 218.855 35.0447C217.813 34.6923 216.753 34.312 215.711 33.9597C222.852 61.2875 230.339 89.9166 247.039 113.155C248.613 115.329 252.095 113.001 250.521 110.827Z" fill="#DBDBDB"/>
<path d="M270.231 62.0451C261.298 36.5597 249.068 12.4718 239.142 -12.6315C238.759 -13.626 237.568 -14.4431 236.481 -13.9587C217.457 -5.63963 195.808 -6.61556 177.129 2.76312C174.714 3.97387 177.071 7.43971 179.458 6.24757C197.737 -2.94481 219.136 -1.80131 237.798 -9.99922C236.895 -10.4447 236.04 -10.8809 235.137 -11.3264C245.073 13.7305 257.294 37.8649 266.226 63.3503C267.122 65.897 271.108 64.5639 270.231 62.0451Z" fill="#DBDBDB"/>
</svg>
