<svg width="248" height="293" viewBox="0 0 248 293" fill="none" xmlns="http://www.w3.org/2000/svg">
<path d="M66.8091 282.129C88.2532 261.399 110.174 238.996 122.101 211.197C127.897 197.667 129.746 183.532 130.426 168.945C131.118 153.813 130.106 137.347 135.822 123.065C139.022 115.074 143.95 107.912 149.737 101.565C152.689 98.3076 155.848 95.2831 159.19 92.4141C160.9 90.9341 162.675 89.5189 164.436 88.1297C165.81 87.065 167.389 85.1314 168.997 84.5721C171.201 83.7918 170.051 80.37 167.847 81.1503C165.253 82.0606 164.024 83.8124 161.951 85.5002C159.037 87.902 156.083 90.252 153.312 92.8222C147.782 97.9368 142.772 103.634 138.634 109.927C134.703 115.935 131.668 122.551 129.958 129.567C128.184 136.843 127.864 144.519 127.492 151.975C126.737 167.626 127.125 183.652 122.773 198.84C118.332 214.274 109.617 228.391 99.8865 241.03C89.1597 254.954 76.7426 267.518 64.1169 279.72C62.4335 281.342 65.1516 283.764 66.8091 282.129Z" fill="#DCD3D7"/>
<path d="M111.893 219.519C95.8676 226.24 77.3387 211.348 67.8764 199.741C62.9826 193.743 58.1631 186.227 57.7683 178.293C57.6055 175.298 58.2865 172.302 60.1887 169.914C62.4017 167.163 66.8992 164.578 70.4558 164.794C74.7004 165.062 75.3105 170.741 75.7983 173.995C76.4573 178.338 76.7145 182.901 78.2556 187.036C81.4421 195.551 92.4068 200.233 100.782 196.568C109.041 192.942 111.911 182.423 108.596 174.491C105.007 165.873 97.0749 159.333 90.1954 153.35C83.563 147.587 74.0743 141.374 71.3025 132.612C69.2888 126.169 70.6096 119.283 73.6718 113.393C74.2145 112.368 76.1635 107.737 77.7598 107.723C77.8507 107.735 78.9196 109.757 79.1805 110.34C82.3519 117.909 82.7502 127.335 88.3198 133.734C93.5381 139.732 103.432 141.615 107.814 133.921C112.273 126.072 110.124 117.296 107.303 109.416C105.578 104.607 103.345 98.7359 105.839 93.7932C107.299 90.9261 113.334 85.3831 117.09 87.5445C121.001 89.7835 119.344 97.0852 122.375 100.246C127.814 105.932 136.378 94.3961 137.355 89.9606C138.51 84.5136 136.822 78.7844 135.227 73.5867C133.37 67.5464 131.357 61.4285 130.719 55.0888C130.016 48.2304 131.675 41.9012 136.101 36.5285C139.79 32.0513 145.052 29.1672 150.473 27.2036C155.556 25.3311 161.925 23.8073 167.173 25.9671C171.928 27.9459 173.482 32.1193 171.442 36.6077C168.64 42.8215 160.246 49.9747 162.95 57.5052C164.204 60.9788 167.988 63.8014 171.635 64.0957C175.659 64.4156 179.548 62.3369 182.944 60.4662C187.429 57.9719 191.705 54.9204 196.542 53.1518C201.767 51.2532 206.793 52.5575 211.588 55.1067C221.282 60.257 228.538 71.8021 221.852 82.1691C215.477 92.0431 203.001 90.7857 192.962 93.4285C182.741 96.1103 165.747 110.248 179.94 119.193C185.347 122.597 191.775 124.341 197.763 126.448C203.426 128.426 210.258 130.467 214.577 134.884C218.337 138.731 217.379 145.41 212.596 148.112C207.36 151.074 199.761 148.488 194.488 146.899C181.916 143.165 164.362 134.198 151.726 142.121C143.523 147.264 141.081 157.899 143.737 166.83C146.758 176.979 156.899 184.619 167.454 180.225C172.355 178.197 176.525 174.575 181.688 173.195C186.513 171.906 192.979 173.183 196.776 176.563C202.733 181.795 197.612 189.995 193.041 194.162C186.552 200.095 178.018 202.386 169.525 200.165C163.109 198.46 152.261 193.544 146.994 200.085C141.08 207.404 148.233 214.074 152.905 219.281C156.028 222.779 156.776 226.486 153.163 230.095C149.991 233.275 145.085 233.293 140.931 232.584C132.842 231.18 124.461 227.104 118.025 221.989C116.218 220.539 113.771 223.239 115.604 224.702C122.288 230.037 130.746 234.216 139.147 235.97C147.016 237.622 157.512 235.821 159.242 226.354C160.869 217.548 149.143 214.786 148.489 206.981C147.489 195.313 165.456 203.06 170.78 204.222C178.922 206.041 187.481 203.309 193.894 198.181C199.166 193.974 204.484 186.941 202.767 179.773C200.801 171.606 189.787 168.065 182.393 169.369C177.061 170.309 172.759 173.607 168.028 176.01C161.87 179.129 155.353 178.28 150.772 172.761C143.939 164.47 144.514 149.442 155.054 144.426C161.886 141.19 170.34 143.359 177.249 145.31C185.002 147.519 192.563 150.635 200.497 152.222C206.132 153.344 212.894 153.7 217.089 149.054C220.895 144.861 221.788 138.377 218.286 133.752C214.511 128.764 207.834 126.347 202.197 124.252C195.78 121.899 188.975 120.13 182.958 116.843C178.046 114.138 176.26 110.691 180.117 106.006C183.158 102.308 187.161 99.1527 191.7 97.5919C196.835 95.8101 202.325 95.532 207.643 94.4891C217.879 92.4944 227.377 85.8586 228.051 74.6033C228.677 64.4891 220.986 55.771 212.384 51.4883C208.019 49.3147 203.018 47.8289 198.141 48.8973C193.303 49.9526 188.948 52.7061 184.762 55.1871C181.081 57.3693 175.705 61.4593 171.108 60.401C166.264 59.3169 165.254 54.7669 167.075 50.8492C170.071 44.3759 178.633 37.015 175.383 29.148C171.05 18.6371 156.675 20.8696 148.389 24.0939C137.73 28.2414 128.43 36.3033 127.044 48.2725C126.357 54.2765 127.643 60.2915 129.2 66.0857C130.889 72.3336 133.668 78.6711 133.995 85.1797C134.171 88.4081 133.491 91.5985 131.277 94.0903C130.319 95.1675 127.523 98.049 125.809 97.973C123.966 97.8972 123.765 94.98 123.411 93.4763C122.14 88.1486 120.062 82.2901 113.304 83.8791C108.635 84.9862 104.061 88.44 102.164 92.9024C100.202 97.4296 101.161 102.472 102.56 107.022C104.038 111.805 106.475 116.418 106.656 121.462C106.808 125.391 106.313 130.422 103.608 133.511C100.191 137.443 93.9546 134.662 91.0269 131.424C88.0733 128.172 86.8678 123.233 85.6643 119.137C84.6178 115.638 82.3263 101.287 75.8317 104.561C71.6316 106.679 69.1429 113.631 67.8936 117.769C66.232 123.19 66.1419 129.103 68.0622 134.495C71.1583 143.192 80.0499 149.367 86.7603 155.169C93.8088 161.269 103.443 168.494 105.918 177.982C107.175 182.817 105.475 188.77 101.472 191.861C96.6659 195.587 89.7196 194.363 85.2465 190.711C77.8477 184.664 81.2479 173.405 77.1934 165.591C73.2823 158.01 63.2711 161.509 58.3893 166.298C53.5594 171.049 53.3161 178.051 55.0696 184.234C59.676 200.579 75.3627 215.513 90.7956 221.772C97.8106 224.617 105.782 225.866 112.952 222.863C115.209 222.044 114.059 218.622 111.893 219.519Z" fill="#DCD3D7"/>
</svg>
