<svg width="69" height="76" viewBox="0 0 69 76" fill="none" xmlns="http://www.w3.org/2000/svg">
  <path
    d="M46.9255 74.9764C54.8742 71.2355 62.2144 64.0913 66.1548 56.3917C68.8637 51.0886 70.9888 42.736 64.8969 38.7231C59.5551 35.2146 52.2826 38.4427 48.207 42.3601C43.636 46.767 39.9794 52.6509 38.2713 58.7225C37.4282 61.7139 37.0177 65.079 38.0316 68.1039C39.0918 71.2833 41.5496 73.3928 44.6815 74.5913C46.3836 75.245 47.0925 72.564 45.4131 71.9101C34.2019 67.5953 43.5742 51.7008 48.5005 46.0971C51.6722 42.4947 56.7226 38.7486 61.9402 40.3774C67.8836 42.2231 66.0959 50.1756 64.104 54.1914C60.2769 61.8903 53.3886 68.877 45.4625 72.6178C43.8366 73.3794 45.277 75.7603 46.9255 74.9764Z"
    fill="#FFFFFF" />
  <path
    d="M45.8508 73.0622C47.603 66.7692 51.284 61.1949 54.6709 55.6445C55.613 54.1125 53.1367 52.7332 52.2173 54.2651C48.7184 60.0153 44.9482 65.8334 43.1294 72.3481C42.6412 74.0544 45.3854 74.7905 45.8508 73.0622Z"
    fill="#FFFFFF" />
  <path
    d="M27.1653 64.4975C26.4331 59.303 25.5424 54.1315 24.335 49.0061C22.9649 43.1515 21.3872 36.6567 17.8256 31.6556C16.5699 29.8931 14.9069 28.1773 12.6626 27.7479C10.1917 27.2756 7.93515 28.6161 6.24648 30.2631C3.58958 32.8448 1.48101 36.264 0.913459 39.8954C0.258438 44.0583 1.18881 48.2783 2.90924 52.0734C6.60228 60.193 15.209 68.306 25.0026 66.3906C26.7894 66.0483 26.0039 63.3761 24.2397 63.7182C16.5949 65.2229 9.76404 58.7587 6.4004 52.761C4.54695 49.4534 3.34732 45.6553 3.52903 41.8712C3.69029 38.4634 5.30303 35.4453 7.57525 32.91C8.3177 32.0872 9.15072 31.2638 10.1668 30.7711C10.799 30.4577 11.5229 30.3429 11.999 30.4286C13.5176 30.6852 14.7258 32.0719 15.6624 33.4823C18.7233 38.0438 20.1377 43.7211 21.4137 48.9567C22.1563 52.0496 22.7859 55.1652 23.3475 58.2812C23.5584 59.4967 23.7693 60.7123 23.9577 61.95C24.0287 62.4806 24.1222 62.9888 24.1933 63.5194C24.2639 63.9835 24.3113 64.3372 24.3349 64.5141C24.5942 66.2602 27.4247 66.2658 27.1653 64.4975Z"
    fill="#FFFFFF" />
  <path
    d="M24.717 63.8255C21.2685 58.8016 18.9035 53.1962 16.1323 47.8366C15.3079 46.2486 12.8705 47.6565 13.695 49.2446C16.4662 54.6042 18.8312 60.2096 22.2797 65.2334C23.2847 66.7098 25.7446 65.3017 24.717 63.8255Z"
    fill="#FFFFFF" />
  <path
    d="M40.1877 37.2116C44.7055 31.4555 49.5361 24.9675 50.5346 17.5727C51.1422 13.0561 50.7928 7.50534 48.1885 3.5827C47.0692 1.90791 45.4312 0.590107 43.3245 0.447542C40.9006 0.284705 38.7349 1.66896 36.9773 3.13931C32.4031 6.99323 31.0817 13.3723 31.341 19.012C31.6261 25.1826 33.5442 31.8082 37.6257 36.6514C38.7885 38.0162 40.7696 36.0357 39.6069 34.693C36.62 31.1708 35.0973 26.3349 34.4372 21.8699C33.7297 17.0292 34.0377 11.6073 36.8663 7.40962C38.6398 4.76667 42.9666 1.2018 45.5914 4.77036C47.8966 7.8762 48.1504 12.5647 47.8549 16.261C47.2624 23.3658 42.4767 29.7872 38.1836 35.2544C37.0823 36.6546 39.0863 38.6118 40.1877 37.2116Z"
    fill="#FFFFFF" />
  <path
    d="M40.5784 34.5518C40.5482 29.3753 41.0843 24.2397 41.0541 19.0631C41.0438 17.2934 38.2133 17.2878 38.2238 19.0797C38.254 24.2562 37.7178 29.3918 37.748 34.5683C37.7585 36.3602 40.5889 36.3437 40.5784 34.5518Z"
    fill="#FFFFFF" />
</svg>