<svg width="93" height="85" viewBox="0 0 93 85" fill="none" xmlns="http://www.w3.org/2000/svg">
  <path
    d="M3.31958 38.5239C8.03077 56.3152 25.3341 76.3867 54.2533 79.7965C55.0403 79.8919 55.7772 79.4535 55.9899 78.9565C58.179 73.6426 56.2752 67.9282 54.4125 62.9022C52.1982 56.8938 49.1153 51.4284 43.857 46.398C39.0128 41.7596 33.2036 38.3966 25.4285 35.9412C21.5402 34.7059 17.4616 33.7039 13.3653 32.765C11.5347 32.3521 9.68068 31.9414 7.82812 31.546C6.52884 31.2679 5.11032 30.724 3.68466 30.8578C2.84329 30.9367 2.32389 31.4317 2.32438 31.9394C2.25292 34.1926 3.0419 36.3189 3.31958 38.5239C3.48084 39.7397 6.4037 39.4808 6.24101 38.2497C5.96333 36.0447 5.17434 33.9184 5.22387 31.6827C4.76313 32.0491 4.30239 32.4154 3.86359 32.7643C4.82182 32.6744 7.01687 33.4532 8.0519 33.6791C9.78474 34.0551 11.519 34.4462 13.2299 34.8396C16.9174 35.6937 20.5872 36.611 24.0873 37.7289C31.572 40.1038 37.0425 43.3755 41.684 47.8637C46.5326 52.5479 49.3416 57.6081 51.4429 63.1655C53.287 67.9932 55.2261 73.5813 53.1148 78.7186C53.7009 78.4328 54.2652 78.1644 54.8514 77.8786C40.9276 76.2311 29.9361 70.1539 21.9976 62.944C14.0854 55.7623 8.6133 47.1976 6.23958 38.2345C5.91758 37.0645 2.99472 37.3235 3.31958 38.5239Z"
    fill="#335B6B" />
  <path
    d="M4.91132 34.1738C15.2852 40.9552 24.3226 48.5698 32.5225 56.5553C36.0517 59.9939 39.8265 63.2863 43.5136 66.6485C47.3567 70.1653 51.1483 73.8869 52.6895 78.2506C53.1064 79.427 55.8871 78.6583 55.4702 77.4819C53.9681 73.2838 50.4408 69.6142 46.7727 66.2041C42.8715 62.5697 38.7699 59.0617 34.9812 55.3706C26.6268 47.2457 17.4172 39.5549 6.86685 32.6516C5.56135 31.8048 3.63206 33.3553 4.91132 34.1738Z"
    fill="#335B6B" />
  <path
    d="M48.0877 74.158C36.6301 67.386 24.7257 60.6252 17.1134 51.6152C16.2376 50.5741 13.8037 51.7719 14.6795 52.813C22.3981 61.9515 34.5024 68.8321 46.1336 75.6955C47.4815 76.4922 49.4123 74.9569 48.0877 74.158Z"
    fill="#335B6B" />
  <path
    d="M44.7773 57.4822C40.5416 52.2943 34.5369 48.1034 28.3481 43.9604C27.0893 43.1092 25.16 44.6597 26.4173 45.4957C32.4559 49.545 38.2388 53.6337 42.3667 58.6779C43.1972 59.7385 45.6297 58.5255 44.7773 57.4822Z"
    fill="#335B6B" />
  <path
    d="M18.3231 47.6554C16.512 45.4404 15.1101 43.064 12.9803 40.9712C12.5634 40.5487 11.5923 40.5014 10.9389 40.8243C10.2621 41.1494 10.1075 41.764 10.5478 42.1842C12.6775 44.277 14.0794 46.6535 15.8906 48.8685C16.2622 49.3106 17.3239 49.3186 17.932 49.0154C18.6294 48.6576 18.6713 48.0997 18.3231 47.6554Z"
    fill="#335B6B" />
  <path
    d="M11.309 14.3864C27.983 28.2546 57.8164 40.1491 87.086 34.4786C87.9202 34.3234 88.1405 33.6565 88.0041 33.2077C86.3536 27.931 80.4705 23.5286 75.2127 19.7599C69.3992 15.5971 63.2911 12.0621 55.5688 9.41711C47.8218 6.75907 40.0795 5.40846 31.0143 5.53606C26.3524 5.6043 21.6709 5.96672 16.9966 6.40541C14.9166 6.60062 12.8146 6.81329 10.7359 7.02376C9.26498 7.1772 7.56362 7.13684 6.27296 7.70419C5.77453 7.92022 5.42732 8.49134 5.69682 8.85072C7.20746 10.8785 9.45929 12.5136 11.309 14.3864C12.2988 15.386 14.7327 14.1882 13.743 13.1886C12.0478 11.4551 9.8775 9.93549 8.45416 8.08417C8.2548 8.47217 8.07738 8.84273 7.87802 9.23072C8.69362 8.87721 11.4992 8.87548 12.6444 8.76801C14.6061 8.5685 16.5679 8.369 18.5325 8.20001C22.7408 7.82044 26.9563 7.51714 31.1713 7.46007C39.8364 7.33925 47.2585 8.79683 54.6188 11.3527C61.9556 13.9107 67.75 17.3675 73.2643 21.3583C78.1968 24.9268 83.6525 29.0462 85.2014 33.9939C85.5148 33.5644 85.8062 33.1524 86.1196 32.7229C72.04 35.4445 57.6378 33.4726 45.3028 29.6603C33.0159 25.8589 22.0821 20.1456 13.7444 13.2039C12.6187 12.2632 10.1848 13.461 11.309 14.3864Z"
    fill="#335B6B" />
  <path
    d="M9.46778 10.0976C24.2072 12.8995 38.204 16.8328 51.6929 21.3831C57.2449 23.2624 62.9857 24.8932 68.6212 26.6569C74.2815 28.4337 80.0786 30.4131 84.2584 33.4982C85.4485 34.3713 87.8838 33.1888 86.6923 32.3005C78.4844 26.239 65.6267 23.8914 54.8613 20.2241C40.8063 15.4192 26.1966 11.2357 10.7856 8.31217C9.03366 7.98421 7.71586 9.76967 9.46778 10.0976Z"
    fill="#335B6B" />
  <path
    d="M77.3075 31.5046C62.1379 29.1432 46.4875 26.9345 33.3449 21.5516C31.8243 20.925 29.8702 22.4624 31.4142 23.0869C44.9989 28.6591 61.0128 30.9721 76.7095 33.4226C78.5038 33.7004 79.0785 31.7847 77.3075 31.5046Z"
    fill="#335B6B" />
  <path
    d="M63.0781 18.3291C55.5643 15.1414 47.1643 13.314 38.5392 11.6C36.7858 11.2568 35.468 13.0423 37.2214 13.3855C45.5823 15.0473 53.832 16.7811 61.1474 19.8643C62.6694 20.5062 64.6001 18.971 63.0781 18.3291Z"
    fill="#335B6B" />
  <path
    d="M31.7411 17.792C28.4271 16.395 25.3954 14.7408 21.8648 13.5489C21.208 13.3336 20.2202 13.6109 19.8864 14.0731C19.5349 14.5984 19.8406 15.0929 20.5236 15.3365C21.3994 15.6236 22.0357 15.8716 22.796 16.185C23.6059 16.5244 24.3938 16.8813 25.1818 17.2381C26.7096 17.941 28.192 18.6636 29.7636 19.3316C30.378 19.597 31.298 19.603 31.8203 19.1386C32.3264 18.7526 32.4051 18.0835 31.7411 17.792Z"
    fill="#335B6B" />
</svg>