<svg width="123" height="123" viewBox="0 0 123 123" fill="none" xmlns="http://www.w3.org/2000/svg">
  <path
    d="M54.0212 104.745C55.3591 99.4344 57.9787 92.7705 64.2997 92.1757C68.5897 91.7781 72.7581 93.9052 76.8861 94.7464C84.8276 96.363 93.0643 92.704 98.697 87.2393C104.486 81.6305 108.245 73.8107 108.892 65.7555C109.216 61.7987 108.76 57.7752 107.417 54.0362C106.073 50.2816 103.859 46.7699 101.53 43.5471C96.3305 36.3777 89.6552 30.1828 82.2353 25.3576C74.9436 20.6196 66.6329 16.992 57.905 16.1202C53.8763 15.7239 49.7111 15.9102 45.7806 16.9584C41.0573 18.2248 36.8363 20.9595 33.3791 24.3685C26.3101 31.3463 22.0295 41.2336 20.654 50.9949C19.299 60.7302 22.612 70.3387 30.2394 76.6666C34.2231 79.972 38.947 82.0029 43.6859 83.9612C46.0848 84.9566 48.6576 86.1599 49.7258 88.6954C50.7816 91.193 50.1864 93.9066 49.3653 96.3711C48.6457 98.4932 47.696 100.532 46.992 102.652C46.863 103.029 47.0048 103.367 47.3582 103.562C48.9776 104.42 50.4636 105.482 52.2654 105.949C53.1248 106.164 53.3187 104.795 52.4594 104.581C50.8045 104.16 49.3876 103.081 47.8946 102.295C48.0173 102.604 48.1382 102.896 48.2608 103.205C49.5687 99.2513 52.0193 95.2434 51.6399 90.9278C51.1611 85.5613 46.7025 83.712 42.2978 81.9194C37.6109 80.0023 33.0576 77.6131 29.39 74.0505C25.8909 70.6492 23.4117 66.2792 22.3735 61.5131C20.2389 51.7515 23.5793 40.8248 28.7272 32.4969C31.3611 28.2395 34.7346 24.3837 38.919 21.6061C42.8334 19.0095 47.2577 17.6755 51.9367 17.3743C60.5283 16.814 69.0756 19.572 76.5737 23.5855C84.4251 27.7939 91.5107 33.5946 97.2777 40.3674C102.435 46.4322 107.093 53.5545 107.568 61.7073C108.039 69.8291 104.924 78.046 99.6614 84.1837C94.5427 90.1393 86.4649 94.6848 78.3779 93.5731C74.2429 93.0082 70.3862 91.0573 66.1958 90.7586C61.6253 90.4411 57.7535 92.9305 55.4957 96.8372C54.1215 99.2166 53.3135 101.861 52.6558 104.511C52.4315 105.418 53.807 105.604 54.0212 104.745Z"
    fill="#274C5B" />
  <path
    d="M53.139 100.028C54.2157 96.991 55.0363 93.8498 56.3848 90.9147C57.0359 89.4853 57.8359 88.1172 58.8595 86.9119C60.0239 85.5643 61.517 84.6033 63.0013 83.6356C67.7074 80.6083 73.0782 78.7548 77.5909 75.4196C85.9989 69.1908 90.6371 58.4591 90.7265 48.1315C90.7754 42.3652 89.3518 36.6602 86.334 31.7234C85.8668 30.9594 84.7597 31.7888 85.2183 32.5459C90.6631 41.4733 90.4283 52.9117 86.2188 62.2635C83.9759 67.2387 80.5679 71.673 76.0713 74.8096C71.5972 77.9358 66.3711 79.7488 61.8203 82.758C59.0152 84.6115 56.9278 86.6805 55.4108 89.7218C53.87 92.8289 53.0164 96.2258 51.8633 99.4844C51.5678 100.322 52.8366 100.874 53.139 100.028Z"
    fill="#274C5B" />
  <path
    d="M55.7979 84.0827C56.9084 68.025 55.7295 51.1008 61.9299 35.8981C63.7272 31.4863 66.1686 27.4008 69.2899 23.8105C69.873 23.1445 68.7888 22.2871 68.2057 22.9531C56.9592 35.9264 55.697 53.7803 55.0581 70.1687C54.8779 74.7462 54.7529 79.3252 54.438 83.8949C54.3672 84.7688 55.7358 84.9635 55.7979 84.0827Z"
    fill="#274C5B" />
  <path
    d="M63.6407 75.4633C75.06 64.5711 80.0577 48.0369 79.9613 32.5606C79.9595 31.6715 78.5861 31.8394 78.5948 32.7198C78.6897 47.6454 73.8488 63.8387 62.833 74.3455C62.1873 74.948 62.9951 76.0658 63.6407 75.4633Z"
    fill="#274C5B" />
  <path
    d="M65.509 61.6982C65.8542 55.2363 68.126 49.03 71.1626 43.372C71.5827 42.5912 70.307 42.0473 69.8869 42.8281C66.806 48.5778 64.4884 54.9311 64.1404 61.5035C64.0937 62.3825 65.4642 62.5927 65.509 61.6982Z"
    fill="#274C5B" />
  <path
    d="M49.7514 79.4419C47.1446 72.7731 44.8888 65.8745 44.4717 58.6829C44.0344 50.9822 46.0287 43.6828 48.9153 36.61C50.9271 31.6774 53.4043 26.6197 57.8054 23.4076C58.5309 22.8824 57.7077 21.7664 56.9821 22.2916C53.169 25.0811 50.7001 29.2013 48.7636 33.4326C46.9739 37.3714 45.4011 41.4816 44.3588 45.6874C42.5792 52.8044 42.6793 60.1116 44.3409 67.2447C45.361 71.5879 46.8224 75.8011 48.4491 79.9478C48.782 80.7747 50.0688 80.2706 49.7514 79.4419Z"
    fill="#274C5B" />
  <path
    d="M44.1088 77.6852C38.1533 73.2008 33.6606 67.0271 31.7049 59.8024C29.4914 51.5846 30.6923 42.9533 35.1819 35.7252C37.8981 31.3637 41.3943 27.5487 44.5839 23.5334C45.1323 22.8399 44.055 21.9739 43.4997 22.676C37.5663 30.1432 30.7004 37.3097 29.4915 47.2169C28.5643 54.8248 30.1949 62.5674 34.2477 69.0835C36.5939 72.8552 39.7054 76.1049 43.2451 78.7774C43.9682 79.307 44.8251 78.2234 44.1088 77.6852Z"
    fill="#274C5B" />
  <path
    d="M38.142 56.3146C37.5953 51.444 38.2375 46.4427 41.0188 42.3019C41.5151 41.5673 40.431 40.7099 39.9346 41.4445C36.9376 45.8938 36.1678 51.2168 36.7668 56.467C36.8636 57.3607 38.2456 57.1997 38.142 56.3146Z"
    fill="#274C5B" />
  <path
    d="M50.7526 67.6923C50.3307 61.7369 50.9172 55.7899 51.7941 49.9035C51.9271 49.0223 50.5585 48.8276 50.4255 49.7088C49.5303 55.7075 48.9428 61.7805 49.3774 67.8447C49.4431 68.742 50.8096 68.5828 50.7526 67.6923Z"
    fill="#274C5B" />
  <path
    d="M55.1831 36.836C56.3229 33.6654 57.444 30.5365 59.8138 28.0568C60.423 27.4114 59.3388 26.554 58.7297 27.1994C56.2758 29.7676 55.0916 33.0298 53.9092 36.3076C53.6119 37.1292 54.8807 37.6818 55.1831 36.836Z"
    fill="#274C5B" />
  <path
    d="M70.8163 33.697C71.7761 30.7363 73.0336 27.8983 73.9847 24.9308C74.256 24.0886 72.9803 23.5447 72.709 24.3869C71.7492 27.3476 70.4917 30.1855 69.5406 33.1531C69.278 34.0021 70.5382 34.5478 70.8163 33.697Z"
    fill="#274C5B" />
  <path
    d="M69.7199 88.4558C76.0819 86.3294 82.8556 84.6273 87.939 79.9821C93.285 75.0939 96.8771 68.1986 98.0023 61.0713C98.6581 56.9263 98.5244 52.6922 97.8284 48.563C97.6782 47.6833 96.3117 47.8425 96.4619 48.7222C98.0345 58.0534 96.2698 67.1125 90.6779 74.8074C88.1431 78.2979 84.9324 81.0565 81.0344 82.9193C77.2551 84.7211 73.1749 85.834 69.215 87.1689C68.3672 87.4565 68.8789 88.7348 69.7199 88.4558Z"
    fill="#274C5B" />
  <path
    d="M88.1185 87.3001C91.159 85.2381 94.2547 83.1776 96.8237 80.5173C99.4494 77.8033 101.189 74.5156 101.993 70.8255C102.183 69.9613 100.814 69.7667 100.624 70.6309C99.8391 74.2086 98.0704 77.3186 95.4855 79.9099C93.0568 82.357 90.131 84.2561 87.2953 86.1841C86.5592 86.6869 87.3738 87.7961 88.1185 87.3001Z"
    fill="#274C5B" />
</svg>