<svg width="102" height="114" viewBox="0 0 102 114" fill="none" xmlns="http://www.w3.org/2000/svg">
  <path
    d="M72.7975 92.9015C70.8274 100.314 60.6293 102.776 54.0224 102.955C50.6072 103.049 46.6818 102.708 43.8021 100.708C42.7115 99.9575 41.848 98.9121 41.5261 97.6038C41.1609 96.0889 41.4695 93.8204 42.5038 92.6357C43.7412 91.2244 45.8903 92.5415 47.1591 93.248C48.8545 94.188 50.5189 95.3281 52.3792 95.9037C56.2141 97.0849 60.8055 94.5146 61.7816 90.5995C62.74 86.7358 59.8371 82.8981 56.1716 81.919C52.1921 80.8507 47.7689 81.8606 43.8238 82.6526C40.0223 83.4175 35.2934 85.0592 31.484 83.6666C28.6899 82.6343 26.639 80.3168 25.4057 77.6592C25.1938 77.1934 24.1005 75.2641 24.5256 74.7023C24.5546 74.674 25.5492 74.8452 25.8234 74.9112C29.3233 75.8426 32.7251 78.2437 36.4626 78.0217C39.9652 77.8143 43.2895 74.8637 41.7815 71.2588C40.24 67.5849 36.5937 65.9709 33.0791 64.8333C30.9338 64.1401 28.28 63.3382 27.2244 61.1347C26.6158 59.8518 26.305 56.2488 28.0726 55.5186C29.9093 54.7548 32.0146 57.3018 33.9362 57.0941C37.3891 56.7259 35.6655 50.6236 34.3784 49.0871C32.786 47.2153 30.3289 46.2611 28.0823 45.418C25.4708 44.4391 22.7901 43.4939 20.4025 42.0082C17.8159 40.4059 16.051 38.1202 15.3661 35.1253C14.7953 32.6296 15.2056 30.0131 15.9801 27.5895C16.6956 25.3082 17.8794 22.6717 20.0487 21.4194C22.0216 20.2909 23.8991 20.8725 24.918 22.7952C26.3346 25.449 26.5726 30.3103 29.9333 31.3947C31.4852 31.8925 33.4913 31.3309 34.5772 30.1354C35.7735 28.8152 36.095 26.8959 36.3564 25.2048C36.6933 22.9652 36.779 20.6484 37.4645 18.4814C38.2093 16.1432 40.0195 14.7382 42.2027 13.7494C46.6152 11.7494 52.6056 12.3248 54.4271 17.4554C56.1599 22.3446 52.3584 26.3658 50.5765 30.5868C48.7594 34.8817 49.1206 44.6316 56.0717 42.0816C58.7187 41.1093 61.0606 39.3325 63.4107 37.8076C65.6282 36.3613 68.1827 34.5239 70.8904 34.2047C73.2481 33.9274 75.3242 36.062 74.9796 38.4618C74.6035 41.0901 71.6523 43.0491 69.6758 44.4637C64.9827 47.8513 57.1178 51.5701 56.4816 58.1214C56.0684 62.3746 59.1273 66.0938 62.9643 67.5726C67.3258 69.2518 72.7287 67.7663 74.0374 62.8934C74.6495 60.634 74.5076 58.2002 75.4165 56.0241C76.2664 53.9905 78.4553 52.0746 80.6601 51.6583C84.0939 50.9866 85.5798 54.9861 85.8041 57.7069C86.1289 61.5734 84.6296 65.1736 81.5645 67.5433C79.2397 69.3261 74.5981 71.7929 75.4646 75.3963C76.4288 79.4358 80.6878 78.7332 83.7667 78.5039C85.8308 78.355 87.3282 79.0926 87.6158 81.3277C87.8723 83.2934 86.5565 85.0129 85.1891 86.274C82.5183 88.7225 78.8353 90.5532 75.3132 91.4242C74.3192 91.665 74.6033 93.2477 75.6088 93.0012C79.2745 92.1032 83.0147 90.2731 85.892 87.8097C88.5897 85.5046 90.789 81.3513 87.9465 78.1952C85.3075 75.2532 81.182 78.607 78.2779 76.7322C73.9301 73.9373 81.4801 69.7457 83.3207 68.198C86.1508 65.8428 87.5027 62.115 87.4385 58.4918C87.3892 55.5154 86.3642 51.7614 83.3961 50.4295C80.0121 48.9157 75.8063 51.8108 74.2694 54.7467C73.1607 56.8634 73.1542 59.2554 72.7191 61.5569C72.1496 64.5494 70.0966 66.5984 66.9331 66.7122C62.1939 66.8659 57.0965 62.6148 58.1838 57.5793C58.8942 54.3195 61.9307 51.9494 64.4744 50.0604C67.3359 47.9459 70.4628 46.1434 73.1553 43.7982C75.0662 42.1311 77.0131 39.8634 76.5195 37.1454C76.08 34.6855 74.0547 32.6258 71.4944 32.6032C68.7337 32.5785 66.0894 34.2604 63.8381 35.6662C61.2864 37.2748 58.8342 39.1763 56.0639 40.3933C53.7948 41.3811 52.1087 41.0764 51.5107 38.4659C51.0377 36.4062 51.0138 34.1569 51.6915 32.1499C52.4527 29.875 53.8349 27.8815 54.9037 25.7416C56.965 21.6267 57.2054 16.5189 53.4535 13.2499C50.0871 10.3055 44.9676 10.6439 41.1527 12.496C39.2164 13.436 37.3496 14.7832 36.4085 16.7758C35.4734 18.7512 35.2623 21.0151 35.0012 23.1468C34.7719 25.0214 34.7524 28.0028 33.1437 29.3241C31.4595 30.7248 29.5971 29.8515 28.7186 28.1593C27.2636 25.3677 26.9983 20.3917 23.3729 19.4074C18.5315 18.0892 15.4378 23.7149 14.3317 27.4797C12.9088 32.3226 13.2201 37.7456 17.0296 41.4559C18.9429 43.3141 21.3917 44.4857 23.8366 45.5027C26.4753 46.5963 29.4393 47.3329 31.8021 48.9728C32.9779 49.7813 33.9095 50.8789 34.1839 52.3241C34.3022 52.9492 34.5556 54.7031 34.0673 55.2815C33.5441 55.9052 32.4703 55.1894 31.8493 54.9079C29.6447 53.9164 27.0373 53.0635 25.7714 55.8537C24.8999 57.7841 24.8745 60.3133 25.9227 62.1791C26.9762 64.0849 28.9972 65.1087 30.9643 65.8458C33.0342 66.6184 35.3035 67.0097 37.1149 68.3059C38.5289 69.3115 40.1541 70.8403 40.5046 72.6182C40.958 74.8723 38.3054 76.3023 36.3846 76.4528C34.4522 76.6088 32.4012 75.6992 30.6453 75.0159C29.1401 74.4385 23.5068 71.3718 22.901 74.5241C22.5093 76.5628 24.2685 79.3063 25.3778 80.858C26.8249 82.8998 28.8671 84.5248 31.2691 85.3067C35.1431 86.5684 39.6976 85.125 43.5338 84.3433C47.5651 83.5237 52.6865 82.1038 56.6698 83.7959C58.6984 84.6595 60.3211 86.8578 60.3223 89.0897C60.3294 91.7738 58.0294 93.8716 55.5477 94.4508C51.4402 95.4069 48.4218 91.1845 44.598 90.4956C40.8944 89.8195 39.4191 94.2613 39.7775 97.2582C40.1362 100.227 42.5178 102.199 45.1514 103.252C52.1055 106.047 61.5522 104.589 67.899 100.882C70.7838 99.1973 73.3688 96.7478 74.2516 93.4326C74.5734 92.4232 73.0675 91.903 72.7975 92.9015Z"
    fill="#9D8A69" />
</svg>