<svg width="20" height="20" viewBox="0 0 20 20" fill="none" xmlns="http://www.w3.org/2000/svg">
<path d="M13.6585 2.04725C14.7231 2.05031 15.7431 2.45889 16.4958 3.18376C17.2486 3.90863 17.6729 4.89088 17.6761 5.91599V13.6527C17.6729 14.6778 17.2486 15.66 16.4958 16.3849C15.7431 17.1098 14.7231 17.5183 13.6585 17.5214H5.6243C4.55976 17.5183 3.53973 17.1098 2.78698 16.3849C2.03423 15.66 1.60994 14.6778 1.60676 13.6527V5.91599C1.60994 4.89088 2.03423 3.90863 2.78698 3.18376C3.53973 2.45889 4.55976 2.05031 5.6243 2.04725H13.6585ZM13.6585 0.5H5.6243C2.53087 0.5 0 2.93713 0 5.91599V13.6527C0 16.6315 2.53087 19.0686 5.6243 19.0686H13.6585C16.752 19.0686 19.2828 16.6315 19.2828 13.6527V5.91599C19.2828 2.93713 16.752 0.5 13.6585 0.5Z" fill="#274C5B"/>
<path d="M14.8633 5.9163C14.6249 5.9163 14.3919 5.84823 14.1937 5.72071C13.9956 5.59319 13.8411 5.41194 13.7499 5.19988C13.6587 4.98781 13.6348 4.75447 13.6813 4.52935C13.7278 4.30422 13.8426 4.09743 14.0111 3.93513C14.1797 3.77283 14.3944 3.66229 14.6282 3.61751C14.862 3.57274 15.1043 3.59572 15.3245 3.68356C15.5447 3.77139 15.7329 3.92014 15.8654 4.11099C15.9978 4.30184 16.0685 4.52622 16.0685 4.75576C16.0688 4.90825 16.0379 5.05931 15.9774 5.20026C15.917 5.34121 15.8282 5.46928 15.7163 5.57711C15.6043 5.68494 15.4713 5.77042 15.3249 5.82862C15.1785 5.88683 15.0217 5.91662 14.8633 5.9163ZM9.64102 6.68971C10.2767 6.68971 10.8981 6.87123 11.4266 7.2113C11.9551 7.55137 12.3671 8.03473 12.6103 8.60026C12.8536 9.16578 12.9172 9.78806 12.7932 10.3884C12.6692 10.9888 12.3631 11.5402 11.9136 11.9731C11.4641 12.4059 10.8915 12.7007 10.268 12.8201C9.64458 12.9395 8.99837 12.8782 8.4111 12.644C7.82382 12.4097 7.32187 12.013 6.96872 11.5041C6.61557 10.9951 6.42707 10.3967 6.42707 9.78463C6.42798 8.96407 6.76689 8.17738 7.36942 7.59716C7.97196 7.01694 8.78891 6.69059 9.64102 6.68971ZM9.64102 5.14246C8.68757 5.14246 7.75554 5.41472 6.96278 5.92481C6.17002 6.4349 5.55214 7.1599 5.18727 8.00815C4.8224 8.85639 4.72694 9.78978 4.91294 10.6903C5.09895 11.5908 5.55808 12.4179 6.23227 13.0671C6.90645 13.7163 7.76542 14.1585 8.70055 14.3376C9.63567 14.5167 10.605 14.4248 11.4858 14.0734C12.3667 13.7221 13.1196 13.1271 13.6493 12.3637C14.179 11.6003 14.4617 10.7028 14.4617 9.78463C14.4617 8.55345 13.9538 7.3727 13.0498 6.50212C12.1457 5.63155 10.9196 5.14246 9.64102 5.14246Z" fill="#274C5B"/>
</svg>
