<svg width="21" height="18" viewBox="0 0 21 18" fill="none" xmlns="http://www.w3.org/2000/svg">
<path d="M20.6602 2.45842C19.8852 2.79516 19.0652 3.01701 18.2261 3.11696C19.1079 2.60062 19.7711 1.78032 20.0912 0.80991C19.2575 1.2974 18.3469 1.63945 17.3984 1.8214C16.9991 1.40283 16.5187 1.06984 15.9866 0.842684C15.4546 0.615526 14.8818 0.498938 14.3033 0.500007C11.9609 0.500007 10.0654 2.36803 10.0654 4.67078C10.0637 4.99108 10.1004 5.31043 10.1747 5.62201C8.49507 5.54327 6.85036 5.11479 5.34581 4.364C3.84126 3.6132 2.50999 2.55662 1.43717 1.26185C1.0608 1.89634 0.861758 2.62028 0.86084 3.358C0.86084 4.80421 1.61537 6.08256 2.75469 6.83149C2.07967 6.81547 1.41849 6.63681 0.827268 6.31068V6.36233C0.827268 8.3853 2.2907 10.0682 4.22759 10.4513C3.86336 10.5484 3.48803 10.5976 3.11108 10.5977C2.84361 10.5981 2.57674 10.5722 2.31437 10.5202C2.85283 12.1773 4.41999 13.3825 6.27639 13.4169C4.76793 14.5794 2.91593 15.2078 1.01149 15.2032C0.673443 15.2027 0.335713 15.1825 0 15.1429C1.9374 16.38 4.18947 17.0344 6.48815 17.0281C14.2943 17.0281 18.5589 10.6708 18.5589 5.15715C18.5589 4.97638 18.5541 4.7956 18.5455 4.61913C19.3733 4.03034 20.0893 3.29865 20.6602 2.45842Z" fill="#274C5B"/>
</svg>
