<svg width="20" height="21" viewBox="0 0 20 21" fill="none" xmlns="http://www.w3.org/2000/svg">
<path d="M9.79664 0.5C4.38662 0.5 0 4.88466 0 10.2923C0 14.301 2.41417 17.7458 5.86486 19.2627C5.83862 18.5807 5.86049 17.7589 6.03543 17.0157C6.22349 16.2201 7.295 11.678 7.295 11.678C7.295 11.678 6.9801 11.0529 6.9801 10.1305C6.9801 8.67916 7.81982 7.59502 8.86946 7.59502C9.76165 7.59502 10.1903 8.26387 10.1903 9.06386C10.1903 9.96003 9.61732 11.2977 9.3243 12.5392C9.07938 13.5797 9.84475 14.4234 10.8725 14.4234C12.7269 14.4234 13.9777 12.0409 13.9777 9.21687C13.9777 7.07044 12.5301 5.46608 9.9016 5.46608C6.932 5.46608 5.07763 7.68245 5.07763 10.1567C5.07763 11.0092 5.3313 11.6125 5.72491 12.0759C5.90422 12.2901 5.93046 12.3775 5.86486 12.6223C5.81675 12.8015 5.71179 13.2343 5.66368 13.4092C5.59808 13.6584 5.3969 13.7458 5.17385 13.654C3.80494 13.0944 3.16641 11.5994 3.16641 9.91194C3.16641 7.13164 5.51498 3.79615 10.1684 3.79615C13.9077 3.79615 16.37 6.50213 16.37 9.40484C16.37 13.2474 14.2314 16.1152 11.0824 16.1152C10.0241 16.1152 9.03128 15.5425 8.69014 14.8955C8.69014 14.8955 8.12159 17.1512 7.99913 17.5884C7.79357 18.3447 7.38684 19.0966 7.01509 19.6867C7.91686 19.9526 8.85208 20.0881 9.79226 20.0889C15.2023 20.0889 19.5889 15.7042 19.5889 10.2966C19.5889 4.88903 15.2067 0.5 9.79664 0.5Z" fill="#274C5B"/>
</svg>
